<svg id="Capa_1" enable-background="new 0 0 512 512" height="512" viewBox="0 0 512 512" width="512" xmlns="http://www.w3.org/2000/svg"><g>
  <path stroke="#FFF" fill="#fff"  d="m157.743 64.493c-2.949 1.822-4.743 5.041-4.743 8.507v90c0 3.466 1.794 6.685 4.743 8.507 2.953 1.825 6.637 1.985 9.729.438l90-45c3.388-1.695 5.528-5.157 5.528-8.945s-2.14-7.25-5.528-8.944l-90-45c-3.1-1.551-6.781-1.384-9.729.437zm15.257 24.688 57.639 28.819-57.639 28.819z"/>
  <path stroke="#FFF" fill="#fff"  d="m103 266c5.523 0 10-4.478 10-10v-20h200c5.523 0 10-4.478 10-10s-4.477-10-10-10c-7.014 0-192.916 0-200 0v-20c0-5.522-4.477-10-10-10s-10 4.478-10 10v20h-20c-5.523 0-10 4.478-10 10s4.477 10 10 10h20v20c0 5.522 4.477 10 10 10z"/>
  <path stroke="#FFF" fill="#fff" d="m472 216h-86v-176c0-22.056-17.944-40-40-40h-108c-5.523 0-10 4.478-10 10s4.477 10 10 10h108c11.028 0 20 8.972 20 20v246c0 11.028-8.972 20-20 20h-213c-2.652 0-5.196 1.054-7.071 2.929l-42.929 42.928v-35.857c0-5.522-4.477-10-10-10h-33c-11.028 0-20-8.972-20-20v-246c0-11.028 8.972-20 20-20h108c5.523 0 10-4.478 10-10s-4.477-10-10-10h-108c-22.056 0-40 17.944-40 40v246c0 22.056 17.944 40 40 40h23v50c0 4.045 2.437 7.691 6.173 9.239 3.745 1.549 8.044.687 10.898-2.168l57.071-57.071h48.858v86c0 22.056 17.944 40 40 40h148.858l57.071 57.071c2.866 2.865 7.167 3.712 10.898 2.168 3.737-1.548 6.173-5.194 6.173-9.239v-50h23c22.056 0 40-17.944 40-40v-156c0-22.056-17.944-40-40-40zm20 196c0 11.028-8.972 20-20 20h-33c-5.523 0-10 4.478-10 10v35.857l-42.929-42.929c-1.875-1.874-4.419-2.928-7.071-2.928h-153c-11.028 0-20-8.972-20-20v-86h140c22.056 0 40-17.944 40-40v-50h86c11.028 0 20 8.972 20 20z"/><circle cx="193" cy="10" r="10"/></g></svg>
