<svg id="Layer_5" enable-background="new 0 0 64 64" height="512" viewBox="0 0 64 64" width="512" xmlns="http://www.w3.org/2000/svg"><g>
  <path stroke="#FFF" fill="#fff"  d="m46 7h2v6h-2z"/>
<path stroke="#FFF" fill="#fff"  d="m36.1 11.1h2v6h-2z" transform="matrix(.707 -.707 .707 .707 .896 30.364)"/>
<path stroke="#FFF" fill="#fff"  d="m53.9 13.1h6v2h-6z" transform="matrix(.707 -.707 .707 .707 6.695 44.364)"/>
<path stroke="#FFF" fill="#fff"  d="m55.191 20.001-5.527-.001-1.398-5h-2.725l-1.377 4.995-5.546.009-.945 2.36 4.864 3.198-2.246 5.168 2.066 1.54 1.643-1.35v14.114l-4.046 5.883-.845-3.905c-.294-1.358-.888-2.592-1.705-3.639.392-.725.596-1.532.596-2.373 0-.933-.259-1.843-.749-2.633-1.632-2.63-2.653-5.719-3.055-9.179.819-.438 1.602-.946 2.333-1.53l.589-.471c.561-.449.882-1.118.882-1.836 0-1.206-.917-2.192-2.089-2.324-.304-1.829-1.447-3.413-3.147-4.263l-.482-.241c.435-.368.718-.91.718-1.523v-2c0-1.103-.897-2-2-2h-.136c-.274-1.122-.972-2.193-1.864-3.168v-.61c0-3.273-1.804-6.264-4.597-7.618-.828-.4-1.636-.604-2.403-.604-5.011 0-7.957 9.104-8.768 12h-.232c-1.103 0-2 .897-2 2v2c0 .613.283 1.155.718 1.523l-.482.241c-1.7.85-2.843 2.434-3.147 4.263-1.172.132-2.089 1.117-2.089 2.324 0 .718.321 1.387.882 1.836l.589.47c.73.584 1.514 1.092 2.333 1.531-.402 3.459-1.423 6.548-3.055 9.179-.49.79-.749 1.7-.749 2.633 0 1.017.312 1.987.876 2.812-.8 1.197-1.321 2.592-1.47 4.086l-1.511 15.102h35.168v-.007c.029 0 .056.007.084.007 1.943 0 3.739-.903 4.91-2.425.27 1.38 1.486 2.425 2.943 2.425 1.654 0 3-1.346 3-3v-28.924l1.453 1.194 2.066-1.539-2.246-5.168 4.864-3.198zm-29.456 33.892-1.65-6.048c.509.303 1.077.466 1.653.466.505 0 1.014-.119 1.484-.359 1.096-.561 1.778-1.675 1.778-2.982 0-1.24-.683-2.36-1.783-2.922-.476-.243-.99-.354-1.502-.35l.621-.621 5.228.95c2.794.508 4.988 2.63 5.589 5.406l1.039 4.799zm-18.769-1.506.429-4.29c.309-3.09 2.658-5.636 5.713-6.191l4.555-.828.621.621c-.511-.003-1.026.108-1.502.35-1.099.561-1.782 1.681-1.782 2.995 0 1.232.682 2.346 1.778 2.907.469.24.976.358 1.481.358.574 0 1.143-.163 1.656-.466l-1.65 6.049zm9.034-27.387h12v4.993c0 3.309-2.691 6-6 6s-6-2.691-6-6zm7 20c0 .551-.449 1-1 1s-1-.449-1-1 .449-1 1-1 1 .449 1 1zm-3.991-1.061c.05.036.107.076.159.114-.101.299-.168.614-.168.947s.067.647.168.947c-.057.041-.117.084-.173.123-.39.282-.879.319-1.307.1-.431-.22-.688-.641-.688-1.2 0-.493.259-.919.693-1.141.428-.218.914-.18 1.316.11zm5.823.114c.057-.041.117-.084.173-.123.389-.283.875-.318 1.302-.101.434.222.693.649.693 1.215 0 .485-.257.906-.688 1.126-.429.22-.917.182-1.32-.11-.05-.036-.107-.076-.159-.114.1-.298.167-.613.167-.946s-.067-.648-.168-.947zm-2.832-6.06c.827 0 1.626-.126 2.377-.361l.515 2.061-2.36 2.36c-.173-.03-.35-.053-.532-.053s-.359.023-.532.054l-2.36-2.36.515-2.061c.751.233 1.55.36 2.377.36zm13.551 1.428c.294.473.449 1.019.449 1.579 0 .295-.049.58-.131.855-1.13-.888-2.467-1.526-3.948-1.795l-5.108-.929-.589-2.358c2.073-1.296 3.513-3.508 3.74-6.07.792-.157 1.567-.376 2.321-.655.484 3.503 1.578 6.652 3.266 9.373zm.318-13.796-.589.471c-1.549 1.239-3.357 2.106-5.28 2.554v-3.65h5.649c.194 0 .351.157.351.351 0 .107-.048.207-.131.274zm-13.869-22.625c.462 0 .977.136 1.531.405 1.723.836 2.934 2.52 3.323 4.479-1.968-1.523-3.983-2.566-4.406-2.778l-.895 1.789c2.502 1.254 6.275 3.837 7.223 6.106h-13.462c1.272-4.303 3.895-10.001 6.686-10.001zm-9 12h18l.001 2h-18.001zm-.87 5.553 3.106-1.553h13.527l3.106 1.553c1.007.503 1.721 1.396 2 2.447h-4.869-14-4.87c.279-1.051.994-1.944 2-2.447zm-3.998 5.072c-.084-.067-.132-.167-.132-.274 0-.194.157-.351.351-.351h5.649v3.649c-1.923-.447-3.731-1.315-5.28-2.554zm-.132 15.375c0-.56.155-1.106.448-1.579 1.689-2.722 2.783-5.871 3.267-9.372.754.278 1.529.498 2.321.655.227 2.561 1.667 4.774 3.74 6.07l-.589 2.358-4.436.807c-1.721.313-3.268 1.118-4.497 2.257-.163-.374-.254-.778-.254-1.196zm-1.233 13.378 4.697.626-.399 5.996h-4.96zm6.302 6.622.382-5.731 6.284.838 2.212-8.112c.018 0 .035.005.053.005s.035-.005.053-.005l2.212 8.112 8.116-1.082.707 3.132c.248 1.099.775 2.065 1.49 2.843zm29.614-1.922c-.779 1.203-2.101 1.922-3.535 1.922-1.982 0-3.671-1.35-4.108-3.284l-.668-2.957 3.234-.431-1.448 2.105 1.647 1.134 6.195-9.005v8.481zm5.317.922c0 .551-.449 1-1 1s-1-.449-1-1v-30.724l.905-.744 1.095.9zm.769-35.184 1.797 4.136-3.66-3.009-3.66 3.008 1.797-4.135-4.283-2.816 4.927-.007 1.22-4.423 1.239 4.43 4.902.001z"/>

<path fill="#fff" d="m24.828 32.828-1.414-1.414c-.756.756-2.072.756-2.828 0l-1.414 1.414c.755.756 1.76 1.172 2.828 1.172s2.073-.416 2.828-1.172z"/></g></svg>
